/* XPM */
static const char *logo_xpm[]={
"88 27 5 1",
". c #000000",
"# c #00ff00",
"a c #8080ff",
"c c #ffff00",
"b c #ffffff",
"........................................................................................",
"..#....#....#...aaaaaaaaaaaaaaaaaaaaaaaaaaaaaaaaaaaaaaaaaaaaaaaaaaaaaaa....#....#....#..",
"...#...#...#................................................................#...#...#...",
"....#..#..#..................................................................#..#..#....",
".....#.#.#......bbbbbbbbbbbbbbbbbbbbbbbbbbbbbbbbbbbbbbbbbbbbbbbbbbbbbbb.......#.#.#.....",
"......###......................................................................###......",
".......#........................................................................#.......",
".......#..........ccccccccccc.......cccccccccc..........ccccccccccccc...........#.......",
"......###........c...........c......c.........cc........c............c.........###......",
"................c.............c.....c...........c.......c.............c.................",
"....bbbbbb......c...................c............c......c.............c......bbbbbb.....",
".....b....b.....c...................c.............c.....c.............c.......b....b....",
"......b..........c..................c.............c.....c............c.........b........",
".......b..........ccccccccccc.......c.............c.....ccccccccccccc...........b.......",
"......b......................c......c.............c.....c........c.............b........",
".....b....b...................c.....c.............c.....c.........c...........b....b....",
"....bbbbbb....................c.....c............c......c..........c.........bbbbbb.....",
"................c.............c.....c...........c.......c...........c...................",
"......###........c...........c......c.........cc........c............c.........###......",
".......#..........ccccccccccc.......cccccccccc..........c.............c.........#.......",
".......#........................................................................#.......",
"..###########..............................................................###########..",
"................aaaaaaaaaaaaaaaaaaaaaaaaaaaaaaaaaaaaaaaaaaaaaaaaaaaaaaa.................",
"....#######..................................................................#######....",
"........................................................................................",
"......###.......bbbbbbbbbbbbbbbbbbbbbbbbbbbbbbbbbbbbbbbbbbbbbbbbbbbbbbb........###......",
"........................................................................................"};
