/* XPM */
static const char *meter1_xpm[]={
"193 27 8 1",
". c #000000",
"# c #00ff00",
"d c #8080ff",
"e c #80ff80",
"c c #ff0000",
"b c #ffb11f",
"a c #ffff00",
"f c #ffffff",
".................................................................................................................................................................................................",
".................................................................................................................................................................................................",
".................................................................................................................................................................................................",
"...###.###.###.###.###.###.###.###.###.###.###.###.###.###.###.###.###.###.###.aaa.aaa.aaa.aaa.aaa.bbb.bbb.bbb.bbb.bbb.ccc.ccc.ccc.ccc.ccc.......................................................",
"...###.###.###.###.###.###.###.###.###.###.###.###.###.###.###.###.###.###.###.aaa.aaa.aaa.aaa.aaa.bbb.bbb.bbb.bbb.bbb.ccc.ccc.ccc.ccc.ccc.......................................................",
"...###.###.###.###.###.###.###.###.###.###.###.###.###.###.###.###.###.###.###.aaa.aaa.aaa.aaa.aaa.bbb.bbb.bbb.bbb.bbb.ccc.ccc.ccc.ccc.ccc.......................................................",
"...###.###.###.###.###.###.###.###.###.###.###.###.###.###.###.###.###.###.###.aaa.aaa.aaa.aaa.aaa.bbb.bbb.bbb.bbb.bbb.ccc.ccc.ccc.ccc.ccc.......................................................",
"...###.###.###.###.###.###.###.###.###.###.###.###.###.###.###.###.###.###.###.aaa.aaa.aaa.aaa.aaa.bbb.bbb.bbb.bbb.bbb.ccc.ccc.ccc.ccc.ccc.......................................................",
"...###.###.###.###.###.###.###.###.###.###.###.###.###.###.###.###.###.###.###.aaa.aaa.aaa.aaa.aaa.bbb.bbb.bbb.bbb.bbb.ccc.ccc.ccc.ccc.ccc.......................................................",
"...###.###.###.###.###.###.###.###.###.###.###.###.###.###.###.###.###.###.###.aaa.aaa.aaa.aaa.aaa.bbb.bbb.bbb.bbb.bbb.ccc.ccc.ccc.ccc.ccc.......................................................",
"...###.###.###.###.###.###.###.###.###.###.###.###.###.###.###.###.###.###.###.aaa.aaa.aaa.aaa.aaa.bbb.bbb.bbb.bbb.bbb.ccc.ccc.ccc.ccc.ccc.......................................................",
"...###.###.###.###.###.###.###.###.###.###.###.###.###.###.###.###.###.###.###.aaa.aaa.aaa.aaa.aaa.bbb.bbb.bbb.bbb.bbb.ccc.ccc.ccc.ccc.ccc.......................................................",
".................................................................................................................................................................................................",
"...........ddd.....ddd.....ddd.....ddd.....ddd.....ddd.....ddd.....ddd.....ddd.................ddd.................ddd.................ddd.......................................................",
"...ddddddddddddddddddddddddddddddddddddddddddddddddddddddddddddddddddddddddddddddddddddddddddddddddddddddddddddddddddddddddddddddddddddddd.......................................................",
".................................................................................................................................................................................................",
".................................................................................................................................................................................................",
"....ee.......f.....fff.....fff......ff....fffff....fff....fffff....fff.....fff...........aaa...aaa............bb...bbb...........ccc...ccc.......................................................",
"...e..e.....ff....f...f...f...f....f.f....f.......f...f.......f...f...f...f...f.....a...a...a.a...a.....b....b.b..b...b.....c...c...c.c...c......................................................",
"...e.......f.f........f.......f....f.f....f.......f..........f....f...f...f...f.....a.......a.a...a.....b....b.b..b...b.....c...c.....c...c......................................................",
"....ee.......f......ff......ff....f..f....ffff....ffff......f......fff.....ffff...aaaaa...aa..a...a...bbbbb.b..b..b...b...ccccc.cccc..c...c......................................................",
"......e......f.....f..........f...fffff.......f...f...f.....f.....f...f.......f.....a....a....a...a.....b...bbbbb.b...b.....c...c...c.c...c......................................................",
"...e..e......f....f.......f...f......f....f...f...f...f....f......f...f...f...f.....a...a.....a...a.....b......b..b...b.....c...c...c.c...c......................................................",
"....ee.......f....fffff....fff.......f.....fff.....fff.....f.......fff.....fff..........aaaaa..aaa.............b...bbb...........ccc...ccc.......................................................",
".................................................................................................................................................................................................",
".................................................................................................................................................................................................",
"................................................................................................................................................................................................."};
