/* XPM */
static const char *mhz_xpm[]={
"19 9 2 1",
". c #000000",
"# c #ffffff",
"...................",
".#...#.#...#.......",
".##.##.#...#.......",
".#.#.#.#...#.#####.",
".#.#.#.#####....#..",
".#...#.#...#...#...",
".#...#.#...#..#....",
".#...#.#...#.#####.",
"..................."};
