/* XPM */
static const char *rx_xpm[]={
"19 11 60 1",
". c #000000",
"P c #000200",
"v c #000300",
"y c #000400",
"h c #000500",
"r c #000900",
"k c #001100",
"V c #001400",
"1 c #001500",
"M c #001600",
"Y c #001700",
"E c #001b00",
"G c #001d00",
"o c #002000",
"n c #002200",
"d c #002f00",
"t c #004300",
"x c #004400",
"2 c #004f00",
"Q c #005300",
"T c #005500",
"4 c #005b00",
"5 c #005c00",
"i c #006200",
"g c #006300",
"I c #006800",
"f c #006a00",
"A c #008e00",
"C c #009100",
"K c #009d00",
"e c #00a700",
"J c #00a800",
"L c #00aa00",
"R c #00ab00",
"S c #00ac00",
"U c #00ae00",
"z c #00b300",
"H c #00b500",
"c c #00bb00",
"w c #00bf00",
"u c #00c100",
"B c #00c200",
"3 c #00c600",
"j c #00d600",
"O c #00dd00",
"D c #00e100",
"l c #00e300",
"q c #00e400",
"W c #00e900",
"0 c #00ea00",
"X c #00ec00",
"Z c #00ed00",
"b c #00f000",
"p c #00f200",
"m c #00f400",
"s c #00f700",
"N c #00f900",
"F c #00fd00",
"a c #00fe00",
"# c #00ff00",
"...................",
".###abcd.e#f...g#e.",
".##.hi#j.klmn.opqk.",
".##..r#s..tauvwax..",
".##.yi#z...A#B#C...",
".#####Dk...EF#aG...",
".##.EH#I...J#K#L...",
".##..MNOP.Q#R.S#T..",
".##...U#QVWXM.YZ01.",
".##...2#3L#4...5#L.",
"..................."};
