/* XPM */
static const char *tx_xpm[]={
"19 11 41 1",
". c #000000",
"n c #030000",
"d c #110000",
"D c #140000",
"K c #150000",
"G c #160000",
"H c #170000",
"t c #1b0000",
"v c #1d0000",
"h c #200000",
"g c #220000",
"k c #430000",
"p c #440000",
"z c #530000",
"C c #550000",
"L c #5b0000",
"M c #5c0000",
"c c #630000",
"b c #6a0000",
"q c #8e0000",
"s c #910000",
"x c #9d0000",
"a c #a70000",
"w c #a80000",
"y c #aa0000",
"A c #ab0000",
"B c #ac0000",
"o c #bf0000",
"m c #c10000",
"r c #c20000",
"e c #e30000",
"j c #e40000",
"E c #e90000",
"J c #ea0000",
"F c #ec0000",
"I c #ed0000",
"i c #f20000",
"f c #f40000",
"u c #fd0000",
"l c #fe0000",
"# c #ff0000",
"...................",
".########a#b...c#a.",
"....##...defg.hijd.",
"....##....klmnolp..",
"....##.....q#r#s...",
"....##.....tu#lv...",
"....##.....w#x#y...",
"....##....z#A.B#C..",
"....##...DEFG.HIJK.",
"....##...y#L...M#y.",
"..................."};
